<?xml version="1.0" encoding="utf-8"?>
<!-- Generator: Adobe Illustrator 21.0.2, SVG Export Plug-In . SVG Version: 6.00 Build 0)  -->
<svg version="1.1" id="Layer_1" xmlns="http://www.w3.org/2000/svg" xmlns:xlink="http://www.w3.org/1999/xlink" x="0px" y="0px"
	 viewBox="0 0 40 40" style="enable-background:new 0 0 40 40;" xml:space="preserve">
<style type="text/css">
	.st0{fill:#43171C;}
	.st1{fill:#FDFCFC;}
</style>
<path class="st0" d="M35.4,40H4.6C2.1,40,0,37.9,0,35.4V4.6C0,2.1,2.1,0,4.6,0h30.7C37.9,0,40,2.1,40,4.6v30.7
	C40,37.9,37.9,40,35.4,40z"/>
<g>
	<path class="st1" d="M11.1,25.5c-1.5-3.2-3.9-5.5-7.1-7c-0.6-0.3-0.8-0.6-0.6-0.9c0.1-0.3,0.6-0.4,1.2-0.2c0.3,0.1,0.7,0.3,1,0.5
		c1.8,0.8,3.5,1.6,5.3,2.4c0.1,0,0.2,0.1,0.3,0.1c0.7,0.2,0.9,0,0.8-0.6c-0.1-1-0.3-2-0.5-3.1c-0.1-0.7,0-1,0.4-1.1
		c0.5-0.2,1,0,1.3,0.5c0.5,0.8,0.9,1.6,1.4,2.3c0.3,0.4,0.6,0.8,0.9,1.1c0.5,0.5,1.1,0.4,1.6-0.1c0.3-0.4,0.6-0.8,0.8-1.3
		c0.8-1.7,0.9-3.5,0.9-5.3c0-0.5-0.1-1-0.1-1.5c0-0.3,0.1-0.7,0.2-1c0.2-0.4,0.5-0.6,1-0.7c0.5,0,1,0.2,1.1,0.6
		c0.2,0.6,0.2,1.2,0.2,1.8c-0.1,1.6-0.1,3.2,0.3,4.7c0.2,0.9,0.5,1.7,1.1,2.4c0.6,0.8,1.3,0.8,2,0.2c0.3-0.3,0.5-0.6,0.7-0.9
		c0.5-0.7,0.9-1.5,1.4-2.2c0.2-0.3,0.5-0.5,0.8-0.6c0.7-0.2,1.2,0.2,1.1,0.9c-0.1,0.9-0.3,1.8-0.4,2.7c0,0.2-0.1,0.4-0.1,0.6
		c0,0.6,0.2,0.8,0.8,0.6c0.1,0,0.2-0.1,0.3-0.1c1.9-0.9,3.9-1.8,5.8-2.6c0.4-0.2,0.8-0.3,1.1-0.3c0.2,0,0.5,0.2,0.5,0.3
		c0,0.2,0,0.5-0.2,0.6c-0.3,0.2-0.6,0.4-0.9,0.5c-2.2,1.1-4.1,2.6-5.5,4.7c-0.4,0.6-0.8,1.3-1.2,2C23,25.5,17,25.5,11.1,25.5z"/>
	<path class="st1" d="M29,26.5c0,0.5,0,1,0,1.6c-6,0-11.9,0-17.9,0c0-0.5,0-1,0-1.6C17,26.5,23,26.5,29,26.5z"/>
</g>
</svg>
