<?xml version="1.0" encoding="utf-8"?>
<!-- Generator: Adobe Illustrator 23.0.3, SVG Export Plug-In . SVG Version: 6.00 Build 0)  -->
<svg version="1.1" id="Layer_1" xmlns="http://www.w3.org/2000/svg" xmlns:xlink="http://www.w3.org/1999/xlink" x="0px" y="0px"
	 viewBox="0 0 264.9 150.4" style="enable-background:new 0 0 264.9 150.4;" xml:space="preserve">
<style type="text/css">
	.st0{fill:#282829;}
</style>
<g>
	<rect x="62.4" y="136.2" class="st0" width="139.7" height="11.3"/>
	<path class="st0" d="M5.5,71c45,20.5,56.6,55.4,56.6,55.4h54.3h31.7h54.3c0,0,11.6-34.9,56.6-55.4c0,0,6.7-3.4,3.6-7.6
		c0,0-3.6-4.2-12.2,0.8c-5.1,3-48,21.8-48,21.8s-9,4-7.1-5.7l4.2-26.2c0,0,1-4.9-4.7-6.1c-2-0.4-6.3-0.1-8.4,3.1l-11,17.8
		c0,0-14.3,28.2-27.4-1c-9.7-21.6-6-49-6-49s2.3-16.8-9.5-17.3c-0.1,0-0.1,0-0.1,0c-0.1,0-0.2,0-0.3,0c-0.1,0-0.1,0-0.2,0
		c0,0,0,0-0.1,0c-11.8,0.5-9.5,17.3-9.5,17.3s3.7,27.4-6,49c-13.1,29.2-27.4,1-27.4,1L78.1,51.1c-2.2-3.2-6.5-3.5-8.4-3.1
		C64,49.2,65,54.1,65,54.1l4.2,26.2C71.1,89.9,62,86,62,86s-42.9-18.8-48-21.8c-8.5-5-12.2-0.8-12.2-0.8C-1.3,67.6,5.5,71,5.5,71z"
		/>
</g>
</svg>
